<mxfile host="app.diagrams.net" agent="Mozilla/5.0 (Windows NT 10.0; Win64; x64) AppleWebKit/537.36 (KHTML, like Gecko) Chrome/128.0.0.0 Safari/537.36" version="24.7.12">
  <diagram id="C5RBs43oDa-KdzZeNtuy" name="Page-1">
    <mxGraphModel dx="1195" dy="650" grid="1" gridSize="10" guides="1" tooltips="1" connect="1" arrows="1" fold="1" page="1" pageScale="1" pageWidth="827" pageHeight="1169" math="0" shadow="0">
      <root>
        <mxCell id="WIyWlLk6GJQsqaUBKTNV-0" />
        <mxCell id="WIyWlLk6GJQsqaUBKTNV-1" parent="WIyWlLk6GJQsqaUBKTNV-0" />
        <mxCell id="wz-GAJ3mD0vrcpoUKaqA-4" style="edgeStyle=orthogonalEdgeStyle;rounded=0;orthogonalLoop=1;jettySize=auto;html=1;exitX=0.5;exitY=1;exitDx=0;exitDy=0;entryX=0.5;entryY=0;entryDx=0;entryDy=0;" edge="1" parent="WIyWlLk6GJQsqaUBKTNV-1" target="wz-GAJ3mD0vrcpoUKaqA-1">
          <mxGeometry relative="1" as="geometry">
            <mxPoint x="120" y="80" as="sourcePoint" />
          </mxGeometry>
        </mxCell>
        <mxCell id="wz-GAJ3mD0vrcpoUKaqA-5" style="edgeStyle=orthogonalEdgeStyle;rounded=0;orthogonalLoop=1;jettySize=auto;html=1;exitX=0.5;exitY=1;exitDx=0;exitDy=0;entryX=0.5;entryY=0;entryDx=0;entryDy=0;" edge="1" parent="WIyWlLk6GJQsqaUBKTNV-1" source="wz-GAJ3mD0vrcpoUKaqA-1" target="wz-GAJ3mD0vrcpoUKaqA-3">
          <mxGeometry relative="1" as="geometry" />
        </mxCell>
        <mxCell id="wz-GAJ3mD0vrcpoUKaqA-1" value="B에게 전화를 건다" style="rounded=0;whiteSpace=wrap;html=1;" vertex="1" parent="WIyWlLk6GJQsqaUBKTNV-1">
          <mxGeometry x="40" y="120" width="160" height="40" as="geometry" />
        </mxCell>
        <mxCell id="wz-GAJ3mD0vrcpoUKaqA-7" style="edgeStyle=orthogonalEdgeStyle;rounded=0;orthogonalLoop=1;jettySize=auto;html=1;exitX=1;exitY=0.5;exitDx=0;exitDy=0;entryX=1;entryY=0.5;entryDx=0;entryDy=0;" edge="1" parent="WIyWlLk6GJQsqaUBKTNV-1" source="wz-GAJ3mD0vrcpoUKaqA-3" target="wz-GAJ3mD0vrcpoUKaqA-1">
          <mxGeometry relative="1" as="geometry" />
        </mxCell>
        <mxCell id="wz-GAJ3mD0vrcpoUKaqA-34" value="NO" style="edgeLabel;html=1;align=center;verticalAlign=middle;resizable=0;points=[];" vertex="1" connectable="0" parent="wz-GAJ3mD0vrcpoUKaqA-7">
          <mxGeometry y="1" relative="1" as="geometry">
            <mxPoint as="offset" />
          </mxGeometry>
        </mxCell>
        <mxCell id="wz-GAJ3mD0vrcpoUKaqA-16" style="edgeStyle=orthogonalEdgeStyle;rounded=0;orthogonalLoop=1;jettySize=auto;html=1;exitX=0.5;exitY=1;exitDx=0;exitDy=0;entryX=0.5;entryY=0;entryDx=0;entryDy=0;" edge="1" parent="WIyWlLk6GJQsqaUBKTNV-1" source="wz-GAJ3mD0vrcpoUKaqA-3" target="wz-GAJ3mD0vrcpoUKaqA-8">
          <mxGeometry relative="1" as="geometry" />
        </mxCell>
        <mxCell id="wz-GAJ3mD0vrcpoUKaqA-35" value="YES" style="edgeLabel;html=1;align=center;verticalAlign=middle;resizable=0;points=[];" vertex="1" connectable="0" parent="wz-GAJ3mD0vrcpoUKaqA-16">
          <mxGeometry x="-0.2083" y="-3" relative="1" as="geometry">
            <mxPoint as="offset" />
          </mxGeometry>
        </mxCell>
        <mxCell id="wz-GAJ3mD0vrcpoUKaqA-3" value="B가 전화를 받았는가?" style="rhombus;whiteSpace=wrap;html=1;" vertex="1" parent="WIyWlLk6GJQsqaUBKTNV-1">
          <mxGeometry x="40" y="200" width="160" height="80" as="geometry" />
        </mxCell>
        <mxCell id="wz-GAJ3mD0vrcpoUKaqA-17" style="edgeStyle=orthogonalEdgeStyle;rounded=0;orthogonalLoop=1;jettySize=auto;html=1;exitX=0.5;exitY=1;exitDx=0;exitDy=0;entryX=0.5;entryY=0;entryDx=0;entryDy=0;" edge="1" parent="WIyWlLk6GJQsqaUBKTNV-1" source="wz-GAJ3mD0vrcpoUKaqA-8" target="wz-GAJ3mD0vrcpoUKaqA-15">
          <mxGeometry relative="1" as="geometry" />
        </mxCell>
        <mxCell id="wz-GAJ3mD0vrcpoUKaqA-8" value="B에게 A가 받은 임무를&lt;div&gt;설명한다&lt;/div&gt;" style="rounded=0;whiteSpace=wrap;html=1;" vertex="1" parent="WIyWlLk6GJQsqaUBKTNV-1">
          <mxGeometry x="40" y="320" width="160" height="40" as="geometry" />
        </mxCell>
        <mxCell id="wz-GAJ3mD0vrcpoUKaqA-19" style="edgeStyle=orthogonalEdgeStyle;rounded=0;orthogonalLoop=1;jettySize=auto;html=1;exitX=1;exitY=0.5;exitDx=0;exitDy=0;entryX=1;entryY=0.5;entryDx=0;entryDy=0;" edge="1" parent="WIyWlLk6GJQsqaUBKTNV-1" source="wz-GAJ3mD0vrcpoUKaqA-11" target="wz-GAJ3mD0vrcpoUKaqA-13">
          <mxGeometry relative="1" as="geometry" />
        </mxCell>
        <mxCell id="wz-GAJ3mD0vrcpoUKaqA-38" value="NO" style="edgeLabel;html=1;align=center;verticalAlign=middle;resizable=0;points=[];" vertex="1" connectable="0" parent="wz-GAJ3mD0vrcpoUKaqA-19">
          <mxGeometry y="2" relative="1" as="geometry">
            <mxPoint as="offset" />
          </mxGeometry>
        </mxCell>
        <mxCell id="wz-GAJ3mD0vrcpoUKaqA-22" style="edgeStyle=orthogonalEdgeStyle;rounded=0;orthogonalLoop=1;jettySize=auto;html=1;exitX=0.5;exitY=1;exitDx=0;exitDy=0;entryX=0.5;entryY=0;entryDx=0;entryDy=0;" edge="1" parent="WIyWlLk6GJQsqaUBKTNV-1" source="wz-GAJ3mD0vrcpoUKaqA-11">
          <mxGeometry relative="1" as="geometry">
            <mxPoint x="120" y="720" as="targetPoint" />
          </mxGeometry>
        </mxCell>
        <mxCell id="wz-GAJ3mD0vrcpoUKaqA-39" value="YES" style="edgeLabel;html=1;align=center;verticalAlign=middle;resizable=0;points=[];" vertex="1" connectable="0" parent="wz-GAJ3mD0vrcpoUKaqA-22">
          <mxGeometry x="-0.3005" y="-2" relative="1" as="geometry">
            <mxPoint as="offset" />
          </mxGeometry>
        </mxCell>
        <mxCell id="wz-GAJ3mD0vrcpoUKaqA-11" value="B가 A가 시킨 업무의&lt;div&gt;내용을&amp;nbsp;&lt;span style=&quot;background-color: initial;&quot;&gt;이해했는가?&lt;/span&gt;&lt;/div&gt;" style="rhombus;whiteSpace=wrap;html=1;" vertex="1" parent="WIyWlLk6GJQsqaUBKTNV-1">
          <mxGeometry x="40" y="600" width="160" height="80" as="geometry" />
        </mxCell>
        <mxCell id="wz-GAJ3mD0vrcpoUKaqA-20" style="edgeStyle=orthogonalEdgeStyle;rounded=0;orthogonalLoop=1;jettySize=auto;html=1;exitX=0.5;exitY=1;exitDx=0;exitDy=0;entryX=0.5;entryY=0;entryDx=0;entryDy=0;" edge="1" parent="WIyWlLk6GJQsqaUBKTNV-1" source="wz-GAJ3mD0vrcpoUKaqA-13" target="wz-GAJ3mD0vrcpoUKaqA-11">
          <mxGeometry relative="1" as="geometry" />
        </mxCell>
        <mxCell id="wz-GAJ3mD0vrcpoUKaqA-13" value="B가 해야 할 업무를 설명한다" style="rounded=0;whiteSpace=wrap;html=1;" vertex="1" parent="WIyWlLk6GJQsqaUBKTNV-1">
          <mxGeometry x="40" y="520" width="160" height="40" as="geometry" />
        </mxCell>
        <mxCell id="wz-GAJ3mD0vrcpoUKaqA-18" style="edgeStyle=orthogonalEdgeStyle;rounded=0;orthogonalLoop=1;jettySize=auto;html=1;exitX=1;exitY=0.5;exitDx=0;exitDy=0;entryX=1;entryY=0.5;entryDx=0;entryDy=0;" edge="1" parent="WIyWlLk6GJQsqaUBKTNV-1" source="wz-GAJ3mD0vrcpoUKaqA-15" target="wz-GAJ3mD0vrcpoUKaqA-8">
          <mxGeometry relative="1" as="geometry" />
        </mxCell>
        <mxCell id="wz-GAJ3mD0vrcpoUKaqA-36" value="NO" style="edgeLabel;html=1;align=center;verticalAlign=middle;resizable=0;points=[];" vertex="1" connectable="0" parent="wz-GAJ3mD0vrcpoUKaqA-18">
          <mxGeometry x="-0.1515" y="-1" relative="1" as="geometry">
            <mxPoint as="offset" />
          </mxGeometry>
        </mxCell>
        <mxCell id="wz-GAJ3mD0vrcpoUKaqA-27" style="edgeStyle=orthogonalEdgeStyle;rounded=0;orthogonalLoop=1;jettySize=auto;html=1;exitX=0.5;exitY=1;exitDx=0;exitDy=0;entryX=0.5;entryY=0;entryDx=0;entryDy=0;" edge="1" parent="WIyWlLk6GJQsqaUBKTNV-1" source="wz-GAJ3mD0vrcpoUKaqA-15" target="wz-GAJ3mD0vrcpoUKaqA-13">
          <mxGeometry relative="1" as="geometry" />
        </mxCell>
        <mxCell id="wz-GAJ3mD0vrcpoUKaqA-37" value="YES" style="edgeLabel;html=1;align=center;verticalAlign=middle;resizable=0;points=[];" vertex="1" connectable="0" parent="wz-GAJ3mD0vrcpoUKaqA-27">
          <mxGeometry x="-0.2917" relative="1" as="geometry">
            <mxPoint as="offset" />
          </mxGeometry>
        </mxCell>
        <mxCell id="wz-GAJ3mD0vrcpoUKaqA-15" value="B에게 업무를 주어도&lt;div&gt;되는지 합의가&amp;nbsp;&lt;span style=&quot;background-color: initial;&quot;&gt;되었는가?&lt;/span&gt;&lt;/div&gt;" style="rhombus;whiteSpace=wrap;html=1;" vertex="1" parent="WIyWlLk6GJQsqaUBKTNV-1">
          <mxGeometry x="15" y="400" width="210" height="80" as="geometry" />
        </mxCell>
        <mxCell id="wz-GAJ3mD0vrcpoUKaqA-23" value="A의 핸드폰을 꺼낸다" style="ellipse;whiteSpace=wrap;html=1;" vertex="1" parent="WIyWlLk6GJQsqaUBKTNV-1">
          <mxGeometry x="40" y="10" width="160" height="70" as="geometry" />
        </mxCell>
        <mxCell id="wz-GAJ3mD0vrcpoUKaqA-24" value="B와의 전화를 끊는다" style="ellipse;whiteSpace=wrap;html=1;" vertex="1" parent="WIyWlLk6GJQsqaUBKTNV-1">
          <mxGeometry x="40" y="720" width="160" height="70" as="geometry" />
        </mxCell>
        <mxCell id="wz-GAJ3mD0vrcpoUKaqA-40" value="알람 소리를 듣고 기상한다" style="ellipse;whiteSpace=wrap;html=1;" vertex="1" parent="WIyWlLk6GJQsqaUBKTNV-1">
          <mxGeometry x="480" y="10" width="160" height="70" as="geometry" />
        </mxCell>
        <mxCell id="wz-GAJ3mD0vrcpoUKaqA-41" value="시계를 확인한다" style="rounded=0;whiteSpace=wrap;html=1;" vertex="1" parent="WIyWlLk6GJQsqaUBKTNV-1">
          <mxGeometry x="480" y="120" width="160" height="40" as="geometry" />
        </mxCell>
        <mxCell id="wz-GAJ3mD0vrcpoUKaqA-42" value="출발 전 까지 준비할&lt;div&gt;시간이 충분한가?&lt;/div&gt;" style="rhombus;whiteSpace=wrap;html=1;" vertex="1" parent="WIyWlLk6GJQsqaUBKTNV-1">
          <mxGeometry x="480" y="200" width="160" height="80" as="geometry" />
        </mxCell>
        <mxCell id="wz-GAJ3mD0vrcpoUKaqA-43" value="시계를 확인한다" style="rounded=0;whiteSpace=wrap;html=1;" vertex="1" parent="WIyWlLk6GJQsqaUBKTNV-1">
          <mxGeometry x="480" y="320" width="160" height="40" as="geometry" />
        </mxCell>
      </root>
    </mxGraphModel>
  </diagram>
</mxfile>
